<?xml version="1.0" encoding="UTF-8"?>
<svg width="500px" height="500px" viewBox="0 0 500 500" version="1.1" xmlns="http://www.w3.org/2000/svg" xmlns:xlink="http://www.w3.org/1999/xlink">
    <!-- Generator: Sketch 50.2 (55047) - http://www.bohemiancoding.com/sketch -->
    <title>apps/pixel logo</title>
    <desc>Created with Sketch.</desc>
    <defs>
        <polygon id="path-1" points="199 0 397.319817 114.5 397.319817 343.5 199 458 0.680182533 343.5 0.680182533 114.5"></polygon>
    </defs>
    <g id="apps/pixel-logo" stroke="none" stroke-width="1" fill="none" fill-rule="evenodd">
        <g id="Group-3" transform="translate(52.000000, 22.000000)">
            <g id="Polygon">
                <use stroke="#D8126F" stroke-width="16" fill="#D8126F" fill-rule="evenodd" xlink:href="#path-1"></use>
                <use stroke="#FFFFFF" stroke-width="6" xlink:href="#path-1"></use>
            </g>
            <path d="M199,57.5363415 L348,143.517506 L348,315.482494 L199,401.463658 L50,315.482494 L50,143.517506 L199,57.5363415 Z" id="Polygon" stroke="#FFFFFF" stroke-width="6" fill="#D8126F"></path>
            <g id="Group-2" transform="translate(116.000000, 132.000000)"></g>
            <path d="M117.493294,159.928389 C141.883756,159.928389 165.776453,160.42711 189.669151,161.424552 C189.918033,148.956522 190.66468,139.480818 191.660209,132.498721 C194.149031,132.249361 197.384501,132 201.117735,132 C204.104322,132 207.339791,132.498721 210.326379,133.496164 C210.326379,142.473146 209.828614,152.19821 209.081967,162.172634 C233.970194,163.170077 258.609538,164.915601 283,166.910486 L283,174.141944 C283,178.131714 282.502235,180.87468 282.004471,182.370844 C212.815201,182.370844 157.812221,180.375959 116.995529,176.386189 C116.248882,175.139386 116,172.396419 116,168.157289 C116,165.414322 116.497765,162.671355 117.493294,159.928389 Z M163.785395,185.113811 C168.265276,186.609974 172.745156,189.851662 177.47392,195.088235 C170.505216,205.561381 162.043219,216.283887 152.087928,227.006394 C160.052161,234.736573 168.265276,242.716113 176.976155,250.695652 C194.397914,235.734015 211.321908,221.769821 227.997019,208.553708 C232.4769,211.795396 236.459016,215.535806 240.19225,219.525575 C214.308495,245.459079 185.18927,270.14578 152.834575,294.084399 C147.85693,290.842711 144.123696,286.852941 141.385991,282.11509 C148.852459,275.132992 156.567809,268.400256 164.034277,261.91688 C149.350224,252.690537 137.403875,241.469309 128.195231,228.502558 C138.648286,213.540921 150.594635,199.078005 163.785395,185.113811 Z M258.111773,240.721228 C263.089419,244.212276 266.57377,248.451407 269.062593,252.939898 C239.196721,278.873402 208.33532,303.560102 176.229508,327 C171.251863,323.259591 167.518629,319.02046 164.780924,314.282609 C194.149031,287.351662 225.259314,262.664962 258.111773,240.721228 Z M250.147541,287.351662 C260.351714,295.829923 269.80924,304.308184 278.271237,313.035806 C275.28465,317.274936 270.804769,320.765985 264.831595,323.259591 C253.880775,315.280051 244.423249,306.55243 235.961252,297.575448 C240.441133,293.585678 245.169896,290.34399 250.147541,287.351662 Z" id="亥" fill="#FFFFFF"></path>
        </g>
    </g>
</svg>